<!DOCTYPE svg PUBLIC "-//W3C//DTD SVG 1.1//EN" "http://www.w3.org/Graphics/SVG/1.1/DTD/svg11.dtd">
<!-- Uploaded to: SVG Repo, www.svgrepo.com, Transformed by: SVG Repo Mixer Tools -->
<svg height="800px" width="800px" version="1.1" id="Layer_1" xmlns="http://www.w3.org/2000/svg" xmlns:xlink="http://www.w3.org/1999/xlink" viewBox="-45.73 -45.73 599.53 599.53" xml:space="preserve" fill="#000000" stroke="#000000" stroke-width="10.16136">
<g id="SVGRepo_bgCarrier" stroke-width="0">
<path transform="translate(-45.73, -45.73), scale(18.7353125)" d="M16,26.916803014775116C18.316574288826008,27.276518756330745,20.14840330001611,29.75463194447292,22.471202626012985,29.437590714471057C24.693940640231197,29.134206954146777,26.6058217493009,27.286103519517944,27.688671439580126,25.321404424454933C28.754158615427006,23.388207500653067,28.440382682397782,21.01793840486849,28.326706798389953,18.813490387453204C28.231338647971352,16.964073231388998,27.52046813809873,15.269750199192282,27.077617654723113,13.471606058520333C26.64181461055538,11.702077245129507,26.34095494976157,9.960175470282975,25.723974067470586,8.245389447009622C24.913034474277552,5.991530502526875,24.99066273169731,2.849343044191162,22.861144497119213,1.752686646757418C20.7543804269579,0.6677481578960187,18.320567982147544,2.757635330511746,16,3.2377505376935005C14.107897456195488,3.629218148992322,12.091703138320616,3.4340199021807525,10.382202947976491,4.334524219872183C8.692796088813802,5.224444080429365,7.4817637189911474,6.767325583990827,6.362571670977546,8.314407370343178C5.274981130848449,9.817805753694088,4.294108258605224,11.425782533878088,3.9352363573329328,13.246296428501704C3.5805404799924765,15.045625857121617,4.285056218767486,16.831819376102825,4.32211439058986,18.665401185022503C4.368232326226867,20.947246286671334,2.8902777789513916,23.543015184118378,4.181378539496965,25.425036108025658C5.442689532843687,27.263632872564564,8.217175672038767,27.28851512043988,10.429274782626752,27.567730108300623C12.30764705677474,27.80482151583018,14.129144150525224,26.626298064217906,16,26.916803014775116" fill="#5e035b" strokewidth="0"/>
</g>
<g id="SVGRepo_tracerCarrier" stroke-linecap="round" stroke-linejoin="round"/>
<g id="SVGRepo_iconCarrier"> <path style="fill:#ffbd14;" d="M111.713,322.434c0.4,0.4,0.8,1.2,0.4,1.6l-20.4,120.8c-2.8,16.4-0.4,30,6.4,38.4 c4.8,5.6,11.6,8.4,20,8.4c8,0,17.6-2.8,27.6-8l108.4-57.2c0.4-0.4,1.2-0.4,2,0l108.4,56.8c10,5.2,19.2,8,27.2,8l0,0 c8.4,0,15.2-2.8,20-8.4c6.8-8,9.2-21.6,6-38.4l-21.2-120.8c0-0.8,0-1.2,0.4-1.6l87.6-85.6c14.4-14,20.4-28.4,16.4-40 c-4-12-17.2-20-36.8-22.8l-121.2-17.2c-0.8,0-1.2-0.4-1.6-1.2l-54.4-109.6c-8.8-18-20.8-28-33.2-28s-24,10-33.2,28l-54,110 c-0.4,0.4-0.8,0.8-1.6,1.2l-121.2,18c-20,2.8-32.8,11.2-36.8,22.8c-4,11.6,2,25.6,16,39.6h0.4c0.4,0,0.4,0.4,0.8,0.8 L111.713,322.434z"/> <path d="M118.113,497.634c-7.2,0-14-2-19.2-6c-12-8.8-16.4-25.6-12.8-48l20-118.8l-86.4-83.6l0,0l0,0l-2.8-2.8 c-0.4-0.4-0.4-0.4-0.8-0.8c-13.6-14.8-18.8-29.6-14.8-42.8c4.4-14,19.2-23.6,41.6-27.2l119.2-17.6l52.8-108 c10-20.4,23.6-31.6,38.4-31.6l0,0c14.8,0,28.4,11.2,38.4,31.2l53.6,107.6l119.2,16.8c22.4,3.2,37.2,12.8,42,26.8s-1.6,30.4-18,46.4 l-86,84.4l20.8,118.4c4,22.4-0.4,39.2-12.4,48s-29.6,8-49.6-2.8l-106.8-55.6l-106.4,56.4 C137.313,494.834,127.313,497.634,118.113,497.634z M24.913,235.634l88,85.2c0.8,0.8,1.2,2.4,1.2,3.6l-20.4,120.8 c-3.2,19.2,0,33.2,9.6,40s24,5.6,41.2-3.6l108.4-57.2c1.2-0.8,2.4-0.8,3.6,0l108.4,56.8c17.2,8.8,31.6,10,41.2,3.2 c9.2-6.8,12.8-21.2,9.2-40.4l-21.2-120.8c-0.4-1.2,0-2.8,1.2-3.6l87.6-85.6c14-13.6,19.6-27.2,16-38c-3.6-11.2-16-18.8-35.2-21.2 l-121.2-17.2c-1.2,0-2.4-1.2-3.2-2l-54.4-109.6c-8.8-17.2-19.6-26.8-31.2-26.8l0,0c-11.6,0-22.8,9.6-31.2,27.2l-54,110 c-0.4,1.2-1.6,2-3.2,2l-30,4.4l0,0l-90.8,13.6c-19.2,2.8-31.6,10.4-35.2,21.6C5.713,208.834,11.313,222.434,24.913,235.634z"/> <path d="M22.513,242.834c-0.8,0-2-0.4-2.8-1.2l0,0l0,0l0,0l0,0l0,0l0,0l0,0l0,0l0,0l0,0l0,0l0,0l0,0l0,0l0,0l0,0l0,0l0,0l-2.8-2.8 c-1.6-1.6-1.6-4,0-5.6s4-1.6,5.6,0l2.4,2.4l0,0l0.4,0.4l0,0l0,0l0,0l0,0l0,0l0,0l0,0c1.6,1.6,1.6,4,0,5.6 C24.513,242.434,23.313,242.834,22.513,242.834z"/> </g>
</svg>